<svg width="183" height="84" viewBox="0 0 183 84" fill="none" xmlns="http://www.w3.org/2000/svg">
<rect opacity="0.6" width="183" height="84" rx="34" fill="white"/>
<path d="M31.0584 48.0246H39.5213V51.7643H26.1967V31.5975H31.0584V48.0246ZM57.7629 42.0964C57.7629 44.0633 57.3981 45.8038 56.6687 47.3182C55.9392 48.8326 54.9004 50.0007 53.5522 50.8225C52.2133 51.6351 50.6851 52.0414 48.9676 52.0414C47.2501 52.0414 45.7265 51.6489 44.3968 50.864C43.0671 50.0699 42.0283 48.9388 41.2803 47.4706C40.5416 46.0024 40.1538 44.3172 40.1169 42.415V41.2792C40.1169 39.3032 40.477 37.5626 41.1972 36.0574C41.9267 34.5431 42.9655 33.375 44.3137 32.5532C45.6711 31.7314 47.2131 31.3204 48.9399 31.3204C50.6481 31.3204 52.1717 31.7267 53.5107 32.5393C54.8496 33.3519 55.8884 34.5108 56.6271 36.0159C57.3751 37.5118 57.7536 39.2293 57.7629 41.1684V42.0964ZM52.8181 41.2515C52.8181 39.2478 52.4811 37.7288 51.807 36.6946C51.1422 35.6512 50.1864 35.1294 48.9399 35.1294C46.5021 35.1294 45.214 36.9578 45.0755 40.6144L45.0616 42.0964C45.0616 44.0725 45.3894 45.5915 46.045 46.6534C46.7006 47.7153 47.6748 48.2462 48.9676 48.2462C50.1957 48.2462 51.1422 47.7245 51.807 46.6811C52.4718 45.6376 52.8089 44.1371 52.8181 42.1795V41.2515ZM76.7801 49.2712C76.0322 50.1022 74.938 50.7717 73.4975 51.2796C72.057 51.7874 70.478 52.0414 68.7605 52.0414C66.1196 52.0414 64.0096 51.2334 62.4306 49.6175C60.8516 48.0015 60.0067 45.7531 59.8959 42.8721L59.8821 41.1269C59.8821 39.1416 60.233 37.4102 60.9347 35.9328C61.6365 34.4461 62.6384 33.3057 63.9404 32.5116C65.2516 31.7083 66.766 31.3066 68.4835 31.3066C70.9951 31.3066 72.9434 31.8837 74.3285 33.038C75.7229 34.183 76.5354 35.8958 76.7663 38.1766H72.0847C71.9185 37.0501 71.5584 36.2467 71.0043 35.7666C70.4503 35.2864 69.6654 35.0463 68.6497 35.0463C67.4308 35.0463 66.4889 35.5634 65.8241 36.5976C65.1593 37.6318 64.8222 39.1093 64.813 41.0299V42.2488C64.813 44.2618 65.1546 45.7761 65.8379 46.7919C66.5305 47.7984 67.6155 48.3016 69.0929 48.3016C70.3579 48.3016 71.2998 48.02 71.9185 47.4567V44.3264H68.5389V40.9884H76.7801V49.2712ZM96.6839 42.0964C96.6839 44.0633 96.3191 45.8038 95.5896 47.3182C94.8602 48.8326 93.8213 50.0007 92.4732 50.8225C91.1343 51.6351 89.6061 52.0414 87.8885 52.0414C86.171 52.0414 84.6474 51.6489 83.3178 50.864C81.9881 50.0699 80.9493 48.9388 80.2013 47.4706C79.4626 46.0024 79.0748 44.3172 79.0378 42.415V41.2792C79.0378 39.3032 79.398 37.5626 80.1182 36.0574C80.8477 34.5431 81.8865 33.375 83.2347 32.5532C84.592 31.7314 86.1341 31.3204 87.8608 31.3204C89.5691 31.3204 91.0927 31.7267 92.4316 32.5393C93.7706 33.3519 94.8094 34.5108 95.5481 36.0159C96.296 37.5118 96.6746 39.2293 96.6839 41.1684V42.0964ZM91.7391 41.2515C91.7391 39.2478 91.4021 37.7288 90.728 36.6946C90.0631 35.6512 89.1074 35.1294 87.8608 35.1294C85.4231 35.1294 84.135 36.9578 83.9964 40.6144L83.9826 42.0964C83.9826 44.0725 84.3104 45.5915 84.966 46.6534C85.6216 47.7153 86.5958 48.2462 87.8885 48.2462C89.1167 48.2462 90.0631 47.7245 90.728 46.6811C91.3928 45.6376 91.7299 44.1371 91.7391 42.1795V41.2515ZM113.831 35.351H107.778V51.7643H102.917V35.351H96.9747V31.5975H113.831V35.351ZM121.075 51.7643H116.227V31.5975H121.075V51.7643ZM129.317 44.922V51.7643H124.455V31.5975H132.502C134.044 31.5975 135.406 31.8837 136.588 32.4562C137.779 33.0195 138.698 33.8275 139.345 34.8801C140 35.9236 140.328 37.1101 140.328 38.4398C140.328 40.4066 139.622 41.981 138.209 43.1629C136.805 44.3357 134.875 44.922 132.419 44.922H129.317ZM129.317 41.1684H132.502C133.444 41.1684 134.16 40.933 134.649 40.462C135.148 39.9911 135.397 39.3263 135.397 38.4675C135.397 37.5256 135.143 36.7731 134.635 36.2098C134.127 35.6465 133.435 35.3603 132.558 35.351H129.317V41.1684ZM160.01 42.0964C160.01 44.0633 159.645 45.8038 158.916 47.3182C158.186 48.8326 157.148 50.0007 155.799 50.8225C154.461 51.6351 152.932 52.0414 151.215 52.0414C149.497 52.0414 147.974 51.6489 146.644 50.864C145.314 50.0699 144.275 48.9388 143.528 47.4706C142.789 46.0024 142.401 44.3172 142.364 42.415V41.2792C142.364 39.3032 142.724 37.5626 143.444 36.0574C144.174 34.5431 145.213 33.375 146.561 32.5532C147.918 31.7314 149.46 31.3204 151.187 31.3204C152.895 31.3204 154.419 31.7267 155.758 32.5393C157.097 33.3519 158.136 34.5108 158.874 36.0159C159.622 37.5118 160.001 39.2293 160.01 41.1684V42.0964ZM155.065 41.2515C155.065 39.2478 154.728 37.7288 154.054 36.6946C153.389 35.6512 152.434 35.1294 151.187 35.1294C148.749 35.1294 147.461 36.9578 147.323 40.6144L147.309 42.0964C147.309 44.0725 147.637 45.5915 148.292 46.6534C148.948 47.7153 149.922 48.2462 151.215 48.2462C152.443 48.2462 153.389 47.7245 154.054 46.6811C154.719 45.6376 155.056 44.1371 155.065 42.1795V41.2515Z" fill="#059D42"/>
</svg>
